ISO-10303-21;
HEADER;
/* Generated by software containing ST-Developer
 * from STEP Tools, Inc. (www.steptools.com) 
 */
/* OPTION: using custom renumber hook */

FILE_DESCRIPTION(
/* description */ ('STEP AP242 Edition 2',
'CAx-IF Rec.Pracs.---Representation and Presentation of Product Manufa
cturing Information (PMI)---4.0---2014-10-13',
'CAx-IF Rec.Pracs.---3D Tessellated Geometry---0.4---2014-09-14','2;1',
'CAx-IF Rec.Pracs.---User Defined Attributes---1.5---2016-08-15'),
/* implementation_level */ '2;1');

FILE_NAME(
/* name */ 'Part Studio 1',
/* time_stamp */ '2026-09-04T02:39:54Z',
/* author */ (''),
/* organization */ (''),
/* preprocessor_version */ 'ST-DEVELOPER v20',
/* originating_system */ 'ONSHAPE BY PTC INC, 1.220',
/* authorisation */ '  ');

FILE_SCHEMA (('AP242_MANAGED_MODEL_BASED_3D_ENGINEERING_MIM_LF { 1 0 10303 442 3 1 4 }'));
ENDSEC;

DATA;
#10=SHAPE_REPRESENTATION_RELATIONSHIP('','',#247,#11);
#11=ADVANCED_BREP_SHAPE_REPRESENTATION('',(#245),#393);
#12=CYLINDRICAL_SURFACE('',#257,0.0025);
#13=CYLINDRICAL_SURFACE('',#259,0.0025);
#14=LINE('',#333,#38);
#15=LINE('',#336,#39);
#16=LINE('',#338,#40);
#17=LINE('',#340,#41);
#18=LINE('',#342,#42);
#19=LINE('',#344,#43);
#20=LINE('',#346,#44);
#21=LINE('',#350,#45);
#22=LINE('',#352,#46);
#23=LINE('',#354,#47);
#24=LINE('',#356,#48);
#25=LINE('',#357,#49);
#26=LINE('',#367,#50);
#27=LINE('',#370,#51);
#28=LINE('',#372,#52);
#29=LINE('',#374,#53);
#30=LINE('',#376,#54);
#31=LINE('',#378,#55);
#32=LINE('',#380,#56);
#33=LINE('',#382,#57);
#34=LINE('',#384,#58);
#35=LINE('',#386,#59);
#36=LINE('',#388,#60);
#37=LINE('',#389,#61);
#38=VECTOR('',#273,1.);
#39=VECTOR('',#274,1.);
#40=VECTOR('',#275,1.);
#41=VECTOR('',#276,1.);
#42=VECTOR('',#279,1.);
#43=VECTOR('',#280,1.);
#44=VECTOR('',#281,1.);
#45=VECTOR('',#286,1.);
#46=VECTOR('',#287,1.);
#47=VECTOR('',#288,1.);
#48=VECTOR('',#291,1.);
#49=VECTOR('',#292,1.);
#50=VECTOR('',#307,1.);
#51=VECTOR('',#308,1.);
#52=VECTOR('',#309,1.);
#53=VECTOR('',#310,1.);
#54=VECTOR('',#313,1.);
#55=VECTOR('',#314,1.);
#56=VECTOR('',#315,1.);
#57=VECTOR('',#318,1.);
#58=VECTOR('',#319,1.);
#59=VECTOR('',#320,1.);
#60=VECTOR('',#323,1.);
#61=VECTOR('',#324,1.);
#62=ORIENTED_EDGE('',*,*,#118,.F.);
#63=ORIENTED_EDGE('',*,*,#119,.T.);
#64=ORIENTED_EDGE('',*,*,#120,.F.);
#65=ORIENTED_EDGE('',*,*,#121,.F.);
#66=ORIENTED_EDGE('',*,*,#122,.T.);
#67=ORIENTED_EDGE('',*,*,#123,.F.);
#68=ORIENTED_EDGE('',*,*,#122,.F.);
#69=ORIENTED_EDGE('',*,*,#124,.T.);
#70=ORIENTED_EDGE('',*,*,#125,.T.);
#71=ORIENTED_EDGE('',*,*,#126,.T.);
#72=ORIENTED_EDGE('',*,*,#127,.F.);
#73=ORIENTED_EDGE('',*,*,#125,.F.);
#74=ORIENTED_EDGE('',*,*,#128,.T.);
#75=ORIENTED_EDGE('',*,*,#129,.T.);
#76=ORIENTED_EDGE('',*,*,#130,.T.);
#77=ORIENTED_EDGE('',*,*,#129,.F.);
#78=ORIENTED_EDGE('',*,*,#131,.F.);
#79=ORIENTED_EDGE('',*,*,#120,.T.);
#80=ORIENTED_EDGE('',*,*,#121,.T.);
#81=ORIENTED_EDGE('',*,*,#131,.T.);
#82=ORIENTED_EDGE('',*,*,#128,.F.);
#83=ORIENTED_EDGE('',*,*,#124,.F.);
#84=ORIENTED_EDGE('',*,*,#119,.F.);
#85=ORIENTED_EDGE('',*,*,#123,.T.);
#86=ORIENTED_EDGE('',*,*,#127,.T.);
#87=ORIENTED_EDGE('',*,*,#130,.F.);
#88=ORIENTED_EDGE('',*,*,#126,.F.);
#89=ORIENTED_EDGE('',*,*,#132,.T.);
#90=ORIENTED_EDGE('',*,*,#133,.F.);
#91=ORIENTED_EDGE('',*,*,#118,.T.);
#92=ORIENTED_EDGE('',*,*,#133,.T.);
#93=ORIENTED_EDGE('',*,*,#134,.F.);
#94=ORIENTED_EDGE('',*,*,#135,.F.);
#95=ORIENTED_EDGE('',*,*,#136,.T.);
#96=ORIENTED_EDGE('',*,*,#137,.T.);
#97=ORIENTED_EDGE('',*,*,#138,.T.);
#98=ORIENTED_EDGE('',*,*,#139,.F.);
#99=ORIENTED_EDGE('',*,*,#140,.F.);
#100=ORIENTED_EDGE('',*,*,#135,.T.);
#101=ORIENTED_EDGE('',*,*,#132,.F.);
#102=ORIENTED_EDGE('',*,*,#141,.T.);
#103=ORIENTED_EDGE('',*,*,#142,.F.);
#104=ORIENTED_EDGE('',*,*,#143,.F.);
#105=ORIENTED_EDGE('',*,*,#139,.T.);
#106=ORIENTED_EDGE('',*,*,#144,.F.);
#107=ORIENTED_EDGE('',*,*,#137,.F.);
#108=ORIENTED_EDGE('',*,*,#145,.T.);
#109=ORIENTED_EDGE('',*,*,#142,.T.);
#110=ORIENTED_EDGE('',*,*,#136,.F.);
#111=ORIENTED_EDGE('',*,*,#140,.T.);
#112=ORIENTED_EDGE('',*,*,#143,.T.);
#113=ORIENTED_EDGE('',*,*,#145,.F.);
#114=ORIENTED_EDGE('',*,*,#134,.T.);
#115=ORIENTED_EDGE('',*,*,#144,.T.);
#116=ORIENTED_EDGE('',*,*,#141,.F.);
#117=ORIENTED_EDGE('',*,*,#138,.F.);
#118=EDGE_CURVE('',#146,#146,#166,.F.);
#119=EDGE_CURVE('',#147,#148,#14,.T.);
#120=EDGE_CURVE('',#149,#148,#15,.T.);
#121=EDGE_CURVE('',#150,#149,#16,.T.);
#122=EDGE_CURVE('',#150,#147,#17,.T.);
#123=EDGE_CURVE('',#147,#151,#18,.T.);
#124=EDGE_CURVE('',#150,#152,#19,.T.);
#125=EDGE_CURVE('',#152,#151,#20,.T.);
#126=EDGE_CURVE('',#153,#153,#167,.F.);
#127=EDGE_CURVE('',#151,#154,#21,.T.);
#128=EDGE_CURVE('',#152,#155,#22,.T.);
#129=EDGE_CURVE('',#155,#154,#23,.T.);
#130=EDGE_CURVE('',#148,#154,#24,.T.);
#131=EDGE_CURVE('',#149,#155,#25,.T.);
#132=EDGE_CURVE('',#156,#156,#168,.F.);
#133=EDGE_CURVE('',#157,#157,#169,.T.);
#134=EDGE_CURVE('',#158,#159,#26,.T.);
#135=EDGE_CURVE('',#160,#158,#27,.T.);
#136=EDGE_CURVE('',#160,#161,#28,.T.);
#137=EDGE_CURVE('',#161,#159,#29,.T.);
#138=EDGE_CURVE('',#158,#162,#30,.T.);
#139=EDGE_CURVE('',#163,#162,#31,.T.);
#140=EDGE_CURVE('',#160,#163,#32,.T.);
#141=EDGE_CURVE('',#162,#164,#33,.T.);
#142=EDGE_CURVE('',#165,#164,#34,.T.);
#143=EDGE_CURVE('',#163,#165,#35,.T.);
#144=EDGE_CURVE('',#159,#164,#36,.T.);
#145=EDGE_CURVE('',#161,#165,#37,.T.);
#146=VERTEX_POINT('',#332);
#147=VERTEX_POINT('',#334);
#148=VERTEX_POINT('',#335);
#149=VERTEX_POINT('',#337);
#150=VERTEX_POINT('',#339);
#151=VERTEX_POINT('',#343);
#152=VERTEX_POINT('',#345);
#153=VERTEX_POINT('',#349);
#154=VERTEX_POINT('',#351);
#155=VERTEX_POINT('',#353);
#156=VERTEX_POINT('',#362);
#157=VERTEX_POINT('',#365);
#158=VERTEX_POINT('',#368);
#159=VERTEX_POINT('',#369);
#160=VERTEX_POINT('',#371);
#161=VERTEX_POINT('',#373);
#162=VERTEX_POINT('',#377);
#163=VERTEX_POINT('',#379);
#164=VERTEX_POINT('',#383);
#165=VERTEX_POINT('',#385);
#166=CIRCLE('',#250,0.0025);
#167=CIRCLE('',#253,0.0025);
#168=CIRCLE('',#258,0.0025);
#169=CIRCLE('',#260,0.0025);
#170=EDGE_LOOP('',(#62));
#171=EDGE_LOOP('',(#63,#64,#65,#66));
#172=EDGE_LOOP('',(#67,#68,#69,#70));
#173=EDGE_LOOP('',(#71));
#174=EDGE_LOOP('',(#72,#73,#74,#75));
#175=EDGE_LOOP('',(#76,#77,#78,#79));
#176=EDGE_LOOP('',(#80,#81,#82,#83));
#177=EDGE_LOOP('',(#84,#85,#86,#87));
#178=EDGE_LOOP('',(#88));
#179=EDGE_LOOP('',(#89));
#180=EDGE_LOOP('',(#90));
#181=EDGE_LOOP('',(#91));
#182=EDGE_LOOP('',(#92));
#183=EDGE_LOOP('',(#93,#94,#95,#96));
#184=EDGE_LOOP('',(#97,#98,#99,#100));
#185=EDGE_LOOP('',(#101));
#186=EDGE_LOOP('',(#102,#103,#104,#105));
#187=EDGE_LOOP('',(#106,#107,#108,#109));
#188=EDGE_LOOP('',(#110,#111,#112,#113));
#189=EDGE_LOOP('',(#114,#115,#116,#117));
#190=FACE_BOUND('',#170,.T.);
#191=FACE_BOUND('',#171,.T.);
#192=FACE_BOUND('',#172,.T.);
#193=FACE_BOUND('',#173,.T.);
#194=FACE_BOUND('',#174,.T.);
#195=FACE_BOUND('',#175,.T.);
#196=FACE_BOUND('',#176,.T.);
#197=FACE_BOUND('',#177,.T.);
#198=FACE_BOUND('',#178,.T.);
#199=FACE_BOUND('',#179,.T.);
#200=FACE_BOUND('',#180,.T.);
#201=FACE_BOUND('',#181,.T.);
#202=FACE_BOUND('',#182,.T.);
#203=FACE_BOUND('',#183,.T.);
#204=FACE_BOUND('',#184,.T.);
#205=FACE_BOUND('',#185,.T.);
#206=FACE_BOUND('',#186,.T.);
#207=FACE_BOUND('',#187,.T.);
#208=FACE_BOUND('',#188,.T.);
#209=FACE_BOUND('',#189,.T.);
#210=PLANE('',#249);
#211=PLANE('',#251);
#212=PLANE('',#252);
#213=PLANE('',#254);
#214=PLANE('',#255);
#215=PLANE('',#256);
#216=PLANE('',#261);
#217=PLANE('',#262);
#218=PLANE('',#263);
#219=PLANE('',#264);
#220=PLANE('',#265);
#221=PLANE('',#266);
#222=ADVANCED_FACE('',(#190,#191),#210,.F.);
#223=ADVANCED_FACE('',(#192),#211,.T.);
#224=ADVANCED_FACE('',(#193,#194),#212,.T.);
#225=ADVANCED_FACE('',(#195),#213,.F.);
#226=ADVANCED_FACE('',(#196),#214,.F.);
#227=ADVANCED_FACE('',(#197),#215,.T.);
#228=ADVANCED_FACE('',(#198,#199),#12,.F.);
#229=ADVANCED_FACE('',(#200,#201),#13,.F.);
#230=ADVANCED_FACE('',(#202,#203),#216,.T.);
#231=ADVANCED_FACE('',(#204),#217,.F.);
#232=ADVANCED_FACE('',(#205,#206),#218,.F.);
#233=ADVANCED_FACE('',(#207),#219,.T.);
#234=ADVANCED_FACE('',(#208),#220,.T.);
#235=ADVANCED_FACE('',(#209),#221,.F.);
#236=CLOSED_SHELL('',(#222,#223,#224,#225,#226,#227,#228,#229,#230,#231,
#232,#233,#234,#235));
#237=STYLED_ITEM('',(#238),#245);
#238=PRESENTATION_STYLE_ASSIGNMENT((#239));
#239=SURFACE_STYLE_USAGE(.BOTH.,#240);
#240=SURFACE_SIDE_STYLE('',(#241));
#241=SURFACE_STYLE_FILL_AREA(#242);
#242=FILL_AREA_STYLE('',(#243));
#243=FILL_AREA_STYLE_COLOUR('',#244);
#244=COLOUR_RGB('',0.615686274509804,0.811764705882353,0.929411764705882);
#245=MANIFOLD_SOLID_BREP('Part 1',#236);
#246=SHAPE_DEFINITION_REPRESENTATION(#398,#247);
#247=SHAPE_REPRESENTATION('Part 1',(#248),#393);
#248=AXIS2_PLACEMENT_3D('',#329,#267,#268);
#249=AXIS2_PLACEMENT_3D('',#330,#269,#270);
#250=AXIS2_PLACEMENT_3D('',#331,#271,#272);
#251=AXIS2_PLACEMENT_3D('',#341,#277,#278);
#252=AXIS2_PLACEMENT_3D('',#347,#282,#283);
#253=AXIS2_PLACEMENT_3D('',#348,#284,#285);
#254=AXIS2_PLACEMENT_3D('',#355,#289,#290);
#255=AXIS2_PLACEMENT_3D('',#358,#293,#294);
#256=AXIS2_PLACEMENT_3D('',#359,#295,#296);
#257=AXIS2_PLACEMENT_3D('',#360,#297,#298);
#258=AXIS2_PLACEMENT_3D('',#361,#299,#300);
#259=AXIS2_PLACEMENT_3D('',#363,#301,#302);
#260=AXIS2_PLACEMENT_3D('',#364,#303,#304);
#261=AXIS2_PLACEMENT_3D('',#366,#305,#306);
#262=AXIS2_PLACEMENT_3D('',#375,#311,#312);
#263=AXIS2_PLACEMENT_3D('',#381,#316,#317);
#264=AXIS2_PLACEMENT_3D('',#387,#321,#322);
#265=AXIS2_PLACEMENT_3D('',#390,#325,#326);
#266=AXIS2_PLACEMENT_3D('',#391,#327,#328);
#267=DIRECTION('',(0.,0.,1.));
#268=DIRECTION('',(1.,0.,0.));
#269=DIRECTION('',(1.,0.,0.));
#270=DIRECTION('',(0.,0.,-1.));
#271=DIRECTION('',(1.,0.,0.));
#272=DIRECTION('',(0.,0.,-1.));
#273=DIRECTION('',(0.,-1.,0.));
#274=DIRECTION('',(0.,0.,-1.));
#275=DIRECTION('',(0.,-1.,0.));
#276=DIRECTION('',(0.,0.,-1.));
#277=DIRECTION('',(0.,-1.,0.));
#278=DIRECTION('',(0.,0.,-1.));
#279=DIRECTION('',(-1.,0.,0.));
#280=DIRECTION('',(-1.,0.,0.));
#281=DIRECTION('',(0.,0.,-1.));
#282=DIRECTION('',(1.,0.,0.));
#283=DIRECTION('',(0.,0.,-1.));
#284=DIRECTION('',(1.,0.,0.));
#285=DIRECTION('',(0.,0.,-1.));
#286=DIRECTION('',(0.,-1.,0.));
#287=DIRECTION('',(0.,-1.,0.));
#288=DIRECTION('',(0.,0.,-1.));
#289=DIRECTION('',(0.,-1.,0.));
#290=DIRECTION('',(0.,0.,-1.));
#291=DIRECTION('',(-1.,0.,0.));
#292=DIRECTION('',(-1.,0.,0.));
#293=DIRECTION('',(0.,0.,1.));
#294=DIRECTION('',(1.,0.,0.));
#295=DIRECTION('',(0.,0.,1.));
#296=DIRECTION('',(1.,0.,0.));
#297=DIRECTION('',(-1.,0.,0.));
#298=DIRECTION('',(0.,0.,1.));
#299=DIRECTION('',(1.,0.,0.));
#300=DIRECTION('',(0.,0.,-1.));
#301=DIRECTION('',(-1.,0.,0.));
#302=DIRECTION('',(0.,0.,1.));
#303=DIRECTION('',(-1.,0.,0.));
#304=DIRECTION('',(0.,0.,1.));
#305=DIRECTION('',(1.,0.,0.));
#306=DIRECTION('',(0.,0.,-1.));
#307=DIRECTION('',(0.,-1.,0.));
#308=DIRECTION('',(0.,0.,-1.));
#309=DIRECTION('',(0.,-1.,0.));
#310=DIRECTION('',(0.,0.,-1.));
#311=DIRECTION('',(0.,-1.,0.));
#312=DIRECTION('',(0.,0.,-1.));
#313=DIRECTION('',(-1.,0.,0.));
#314=DIRECTION('',(0.,0.,-1.));
#315=DIRECTION('',(-1.,0.,0.));
#316=DIRECTION('',(1.,0.,0.));
#317=DIRECTION('',(0.,0.,-1.));
#318=DIRECTION('',(0.,-1.,0.));
#319=DIRECTION('',(0.,0.,-1.));
#320=DIRECTION('',(0.,-1.,0.));
#321=DIRECTION('',(0.,-1.,0.));
#322=DIRECTION('',(0.,0.,-1.));
#323=DIRECTION('',(-1.,0.,0.));
#324=DIRECTION('',(-1.,0.,0.));
#325=DIRECTION('',(0.,0.,1.));
#326=DIRECTION('',(1.,0.,0.));
#327=DIRECTION('',(0.,0.,1.));
#328=DIRECTION('',(1.,0.,0.));
#329=CARTESIAN_POINT('',(0.,0.,0.));
#330=CARTESIAN_POINT('',(0.0532185209608078,0.,0.160528));
#331=CARTESIAN_POINT('',(0.0532185209608078,0.,0.12174553497316));
#332=CARTESIAN_POINT('',(0.0532185209608078,0.,0.11924553497316));
#333=CARTESIAN_POINT('',(0.0532185209608078,0.,0.00254));
#334=CARTESIAN_POINT('',(0.0532185209608078,0.0503361707246304,0.00254));
#335=CARTESIAN_POINT('',(0.0532185209608078,-0.0503361707246304,0.00254));
#336=CARTESIAN_POINT('',(0.0532185209608078,-0.0503361707246304,0.160528));
#337=CARTESIAN_POINT('',(0.0532185209608078,-0.0503361707246304,0.157988));
#338=CARTESIAN_POINT('',(0.0532185209608078,0.,0.157988));
#339=CARTESIAN_POINT('',(0.0532185209608078,0.0503361707246304,0.157988));
#340=CARTESIAN_POINT('',(0.0532185209608078,0.0503361707246304,0.160528));
#341=CARTESIAN_POINT('',(0.,0.0503361707246304,0.160528));
#342=CARTESIAN_POINT('',(0.,0.0503361707246304,0.00254));
#343=CARTESIAN_POINT('',(-0.0532185209608078,0.0503361707246304,0.00254));
#344=CARTESIAN_POINT('',(0.,0.0503361707246304,0.157988));
#345=CARTESIAN_POINT('',(-0.0532185209608078,0.0503361707246304,0.157988));
#346=CARTESIAN_POINT('',(-0.0532185209608078,0.0503361707246304,0.160528));
#347=CARTESIAN_POINT('',(-0.0532185209608078,0.,0.160528));
#348=CARTESIAN_POINT('',(-0.0532185209608078,0.,0.12174553497316));
#349=CARTESIAN_POINT('',(-0.0532185209608078,0.,0.11924553497316));
#350=CARTESIAN_POINT('',(-0.0532185209608078,0.,0.00254));
#351=CARTESIAN_POINT('',(-0.0532185209608078,-0.0503361707246304,0.00254));
#352=CARTESIAN_POINT('',(-0.0532185209608078,0.,0.157988));
#353=CARTESIAN_POINT('',(-0.0532185209608078,-0.0503361707246304,0.157988));
#354=CARTESIAN_POINT('',(-0.0532185209608078,-0.0503361707246304,0.160528));
#355=CARTESIAN_POINT('',(0.,-0.0503361707246304,0.160528));
#356=CARTESIAN_POINT('',(0.,-0.0503361707246304,0.00254));
#357=CARTESIAN_POINT('',(0.,-0.0503361707246304,0.157988));
#358=CARTESIAN_POINT('',(0.,0.,0.157988));
#359=CARTESIAN_POINT('',(0.,0.,0.00254));
#360=CARTESIAN_POINT('',(0.0557585209608078,0.,0.12174553497316));
#361=CARTESIAN_POINT('',(-0.0557585209608078,0.,0.12174553497316));
#362=CARTESIAN_POINT('',(-0.0557585209608078,0.,0.11924553497316));
#363=CARTESIAN_POINT('',(0.0557585209608078,0.,0.12174553497316));
#364=CARTESIAN_POINT('',(0.0557585209608078,0.,0.12174553497316));
#365=CARTESIAN_POINT('',(0.0557585209608078,0.,0.12424553497316));
#366=CARTESIAN_POINT('',(0.0557585209608078,0.,0.160528));
#367=CARTESIAN_POINT('',(0.0557585209608078,0.,0.));
#368=CARTESIAN_POINT('',(0.0557585209608078,0.0528761707246304,0.));
#369=CARTESIAN_POINT('',(0.0557585209608078,-0.0528761707246304,0.));
#370=CARTESIAN_POINT('',(0.0557585209608078,0.0528761707246304,0.160528));
#371=CARTESIAN_POINT('',(0.0557585209608078,0.0528761707246304,0.160528));
#372=CARTESIAN_POINT('',(0.0557585209608078,0.,0.160528));
#373=CARTESIAN_POINT('',(0.0557585209608078,-0.0528761707246304,0.160528));
#374=CARTESIAN_POINT('',(0.0557585209608078,-0.0528761707246304,0.160528));
#375=CARTESIAN_POINT('',(0.,0.0528761707246304,0.160528));
#376=CARTESIAN_POINT('',(0.,0.0528761707246304,0.));
#377=CARTESIAN_POINT('',(-0.0557585209608078,0.0528761707246304,0.));
#378=CARTESIAN_POINT('',(-0.0557585209608078,0.0528761707246304,0.160528));
#379=CARTESIAN_POINT('',(-0.0557585209608078,0.0528761707246304,0.160528));
#380=CARTESIAN_POINT('',(0.,0.0528761707246304,0.160528));
#381=CARTESIAN_POINT('',(-0.0557585209608078,0.,0.160528));
#382=CARTESIAN_POINT('',(-0.0557585209608078,0.,0.));
#383=CARTESIAN_POINT('',(-0.0557585209608078,-0.0528761707246304,0.));
#384=CARTESIAN_POINT('',(-0.0557585209608078,-0.0528761707246304,0.160528));
#385=CARTESIAN_POINT('',(-0.0557585209608078,-0.0528761707246304,0.160528));
#386=CARTESIAN_POINT('',(-0.0557585209608078,0.,0.160528));
#387=CARTESIAN_POINT('',(0.,-0.0528761707246304,0.160528));
#388=CARTESIAN_POINT('',(0.,-0.0528761707246304,0.));
#389=CARTESIAN_POINT('',(0.,-0.0528761707246304,0.160528));
#390=CARTESIAN_POINT('',(0.,0.,0.160528));
#391=CARTESIAN_POINT('',(0.,0.,0.));
#392=MECHANICAL_DESIGN_GEOMETRIC_PRESENTATION_REPRESENTATION('',(#237),
#393);
#393=(
GEOMETRIC_REPRESENTATION_CONTEXT(3)
GLOBAL_UNCERTAINTY_ASSIGNED_CONTEXT((#394))
GLOBAL_UNIT_ASSIGNED_CONTEXT((#397,#396,#395))
REPRESENTATION_CONTEXT('Part 1','TOP_LEVEL_ASSEMBLY_PART')
);
#394=UNCERTAINTY_MEASURE_WITH_UNIT(LENGTH_MEASURE(1.E-8),#397,
'DISTANCE_ACCURACY_VALUE','Maximum Tolerance applied to model');
#395=(
NAMED_UNIT(*)
SI_UNIT($,.STERADIAN.)
SOLID_ANGLE_UNIT()
);
#396=(
NAMED_UNIT(*)
PLANE_ANGLE_UNIT()
SI_UNIT($,.RADIAN.)
);
#397=(
LENGTH_UNIT()
NAMED_UNIT(*)
SI_UNIT($,.METRE.)
);
#398=PRODUCT_DEFINITION_SHAPE('','',#399);
#399=PRODUCT_DEFINITION('','',#401,#400);
#400=PRODUCT_DEFINITION_CONTEXT('',#407,'design');
#401=PRODUCT_DEFINITION_FORMATION_WITH_SPECIFIED_SOURCE('','',#403,
 .NOT_KNOWN.);
#402=PRODUCT_RELATED_PRODUCT_CATEGORY('','',(#403));
#403=PRODUCT('Part 1','Part 1','Part 1',(#405));
#404=PRODUCT_CATEGORY('','');
#405=PRODUCT_CONTEXT('',#407,'mechanical');
#406=APPLICATION_PROTOCOL_DEFINITION('international standard',
'ap242_managed_model_based_3d_engineering',2020,#407);
#407=APPLICATION_CONTEXT('managed model based 3d engineering');
ENDSEC;
END-ISO-10303-21;
